<svg xmlns="http://www.w3.org/2000/svg" viewBox="0 0 512 512">
  <defs>
    <linearGradient id="bg" x1="0%" y1="0%" x2="100%" y2="100%">
      <stop offset="0%" stop-color="#BFDFFF"/>
      <stop offset="100%" stop-color="#3AD9D1"/>
    </linearGradient>
  </defs>
  <rect width="512" height="512" rx="108" fill="url(#bg)"/>
  <path d="M273.9 322.5l-54.2-53.5.6-.7c18.4-20.6 32.4-43.8 41.6-68.3H298v-42.7h-149.3V115h-21.4v42.7H21.3v42.3h238.3c-6.9 17.1-16.6 33.2-28.7 47.3-13.6-14.7-24.8-31.3-33.5-49.3h-42.7c10.3 23 24.3 44.6 41.5 64.2L88 370.5l20.3 21.3 106.7-106.7 66.3 66.3 16.2-28.9zM394.7 213.3h-42.7L256 469.3h42.7l23.9-64h101.3l24.5 64H491L394.7 213.3zm-55.9 149.4l34.6-92.4 34.6 92.4h-69.2z" fill="#030816"/>
</svg>
